HIERARCHY
ROOT Hips
{
	OFFSET 0.00000 0.00000 0.00000
	CHANNELS 6 Xposition Yposition Zposition Zrotation Yrotation Xrotation 
	JOINT LHipJoint
	{
		OFFSET 0 0 0
		CHANNELS 3 Zrotation Yrotation Xrotation
		JOINT LeftUpLeg
		{
			OFFSET 1.62329 -1.80800 0.67318
			CHANNELS 3 Zrotation Yrotation Xrotation
			JOINT LeftLeg
			{
				OFFSET 2.57139 -7.06484 0.00000
				CHANNELS 3 Zrotation Yrotation Xrotation
				JOINT LeftFoot
				{
					OFFSET 2.52017 -6.92413 0.00000
					CHANNELS 3 Zrotation Yrotation Xrotation
					JOINT LeftToeBase
					{
						OFFSET 0.23295 -0.64001 2.10214
						CHANNELS 3 Zrotation Yrotation Xrotation
						End Site
						{
							OFFSET 0.00000 -0.00000 1.10139
						}
					}
				}
			}
		}
	}
	JOINT RHipJoint
	{
		OFFSET 0 0 0
		CHANNELS 3 Zrotation Yrotation Xrotation
		JOINT RightUpLeg
		{
			OFFSET -1.48061 -1.80800 0.67318
			CHANNELS 3 Zrotation Yrotation Xrotation
			JOINT RightLeg
			{
				OFFSET -2.63258 -7.23296 0.00000
				CHANNELS 3 Zrotation Yrotation Xrotation
				JOINT RightFoot
				{
					OFFSET -2.54779 -7.00000 0.00000
					CHANNELS 3 Zrotation Yrotation Xrotation
					JOINT RightToeBase
					{
						OFFSET -0.23067 -0.63376 2.12161
						CHANNELS 3 Zrotation Yrotation Xrotation
						End Site
						{
							OFFSET -0.00000 -0.00000 1.11000
						}
					}
				}
			}
		}
	}
	JOINT LowerBack
	{
		OFFSET 0 0 0
		CHANNELS 3 Zrotation Yrotation Xrotation
		JOINT Spine
		{
			OFFSET -0.02108 2.07573 -0.16981
			CHANNELS 3 Zrotation Yrotation Xrotation
			JOINT Spine1
			{
				OFFSET 0.05070 2.08439 -0.03141
				CHANNELS 3 Zrotation Yrotation Xrotation
				JOINT Neck
				{
					OFFSET 0 0 0
					CHANNELS 3 Zrotation Yrotation Xrotation
					JOINT Neck1
					{
						OFFSET -0.10731 1.60408 0.31370
						CHANNELS 3 Zrotation Yrotation Xrotation
						JOINT Head
						{
							OFFSET 0.08411 1.65679 -0.30822
							CHANNELS 3 Zrotation Yrotation Xrotation
							End Site
							{
								OFFSET 0.03911 1.69149 -0.14146
							}
						}
					}
				}
				JOINT LeftShoulder
				{
					OFFSET 0 0 0
					CHANNELS 3 Zrotation Yrotation Xrotation
					JOINT LeftArm
					{
						OFFSET 3.52315 0.73219 -0.54694
						CHANNELS 3 Zrotation Yrotation Xrotation
						JOINT LeftForeArm
						{
							OFFSET 5.32462 -0.00000 -0.00000
							CHANNELS 3 Zrotation Yrotation Xrotation
							JOINT LeftHand
							{
								OFFSET 3.48402 -0.00000 -0.00000
								CHANNELS 3 Zrotation Yrotation Xrotation
								JOINT LeftFingerBase
								{
									OFFSET 0 0 0
									CHANNELS 3 Zrotation Yrotation Xrotation
									JOINT LeftHandIndex1
									{
										OFFSET 0.57248 -0.00000 -0.00000
										CHANNELS 3 Zrotation Yrotation Xrotation
										End Site
										{
											OFFSET 0.46154 -0.00000 -0.00000
										}
									}
								}
								JOINT LThumb
								{
									OFFSET 0 0 0
									CHANNELS 3 Zrotation Yrotation Xrotation
									End Site
									{
										OFFSET 0.46859 -0.00000 0.46859
									}
								}
							}
						}
					}
				}
				JOINT RightShoulder
				{
					OFFSET 0 0 0
					CHANNELS 3 Zrotation Yrotation Xrotation
					JOINT RightArm
					{
						OFFSET -3.41766 0.93592 -0.10019
						CHANNELS 3 Zrotation Yrotation Xrotation
						JOINT RightForeArm
						{
							OFFSET -5.33589 -0.00000 -0.00000
							CHANNELS 3 Zrotation Yrotation Xrotation
							JOINT RightHand
							{
								OFFSET -3.64134 -0.00000 -0.00000
								CHANNELS 3 Zrotation Yrotation Xrotation
								JOINT RightFingerBase
								{
									OFFSET 0 0 0
									CHANNELS 3 Zrotation Yrotation Xrotation
									JOINT RightHandIndex1
									{
										OFFSET -0.73481 -0.00000 -0.00000
										CHANNELS 3 Zrotation Yrotation Xrotation
										End Site
										{
											OFFSET -0.59242 -0.00000 -0.00000
										}
									}
								}
								JOINT RThumb
								{
									OFFSET 0 0 0
									CHANNELS 3 Zrotation Yrotation Xrotation
									End Site
									{
										OFFSET -0.60147 -0.00000 0.60147
									}
								}
							}
						}
					}
				}
			}
		}
	}
}
MOTION
Frames: 11
Frame Time: .0083333
-1.9309 18.1609 6.0512 21.1728 -50.6344 5.5075 0.0000 0.0000 0.0000 -20.4659 -14.9149 -13.9930 2.5253 9.8838 28.6014 0.2987 2.0354 9.8172 0.1475 -2.4749 -6.8202 0.0000 0.0000 0.0000 7.8803 4.1945 -41.4349 -2.8694 -10.4806 30.5475 -0.6181 -1.5361 -15.4858 -1.4491 -7.6094 21.5339 2.4649 1.1334 15.2581 8.2538 1.7331 6.8147 7.0992 0.6599 -1.4867 -9.6266 -12.5394 -8.4486 10.0365 -19.0792 25.8918 2.6068 -8.4906 11.7876 -0.0000 0.0000 0.0000 -87.1258 -20.9469 75.3705 40.7450 -48.5051 -18.9954 -0.0000 0.0000 -37.5020 30.2566 54.9172 25.5179 -7.1250 0.0000 -0.0000 -80.7608 83.2841 -74.0249 -0.0000 0.0000 0.0000 79.5724 42.7198 11.1130 -21.7059 32.6431 -6.4265 0.0000 -0.0000 -44.7614 -34.9681 -22.1632 14.7800 7.1250 -0.0000 -0.0000 -6.7633 -56.2832 1.8775
-1.9281 18.1554 6.0533 20.8620 -50.7728 5.9781 0.0000 0.0000 0.0000 -20.4245 -14.9087 -14.2278 2.5600 9.9462 28.8028 0.2598 2.6857 9.0745 0.1307 -2.3301 -6.4189 0.0000 0.0000 0.0000 8.3508 3.8047 -41.8962 -2.8580 -10.4615 30.4846 -0.5877 -1.2665 -14.9950 -1.3485 -7.3517 20.7617 2.6045 1.0535 15.0769 8.0423 1.6419 6.7433 6.8000 0.6235 -1.4480 -9.0807 -12.4675 -8.5563 9.9375 -19.0510 25.9676 2.4907 -8.4354 11.7622 -0.0000 0.0000 0.0000 -87.4701 -22.6280 77.0444 41.4382 -48.8993 -19.5162 -0.0000 0.0000 -36.6288 30.6125 54.5919 25.7460 -7.1250 0.0000 -0.0000 -78.5044 83.4607 -71.9832 -0.0000 0.0000 0.0000 78.1042 43.2777 8.3943 -21.8779 32.8388 -6.5195 0.0000 -0.0000 -45.1975 -35.6416 -21.3395 14.6237 7.1250 -0.0000 -0.0000 -7.6103 -55.4933 1.9684
-1.9257 18.1494 6.0574 20.5088 -50.9886 6.4127 0.0000 0.0000 0.0000 -20.3647 -14.7811 -14.3921 2.5917 10.0028 28.9857 0.2186 3.3843 8.3127 0.1222 -2.2538 -6.2077 0.0000 0.0000 0.0000 8.8456 3.5104 -42.2573 -2.8479 -10.4447 30.4293 -0.5661 -0.9812 -14.6022 -1.2547 -7.1014 20.0160 2.6775 0.9314 14.9696 7.9334 1.4951 6.6395 6.6621 0.5565 -1.4824 -8.8922 -12.3186 -8.5455 9.8744 -18.8893 26.1426 2.4688 -8.3530 11.7809 -0.0000 0.0000 0.0000 -88.0627 -24.0329 78.4106 42.2568 -49.3516 -20.1352 -0.0000 0.0000 -36.3738 30.7778 54.1151 25.7596 -7.1250 0.0000 -0.0000 -74.4806 83.5559 -68.1417 -0.0000 0.0000 0.0000 76.4954 43.6301 6.1498 -22.0644 33.0497 -6.6209 0.0000 -0.0000 -45.4461 -36.3896 -20.8314 14.6861 7.1250 -0.0000 -0.0000 -8.4922 -55.0772 2.1126
-1.9249 18.1460 6.0572 20.1780 -51.2549 6.7739 0.0000 0.0000 0.0000 -20.3232 -14.5454 -14.4892 2.6115 10.0379 29.0997 0.1761 4.0366 7.5516 0.1636 -2.6062 -7.1842 0.0000 0.0000 0.0000 9.2018 3.4952 -42.4801 -2.8496 -10.4475 30.4385 -0.5554 -0.7738 -14.3802 -1.2726 -7.1499 20.1602 2.4457 0.6719 14.9485 8.0818 1.1398 6.4976 7.0189 0.3763 -1.5935 -9.6492 -11.9427 -8.2159 10.0046 -18.3026 26.2427 2.7469 -8.1695 11.7822 0.0000 -0.0000 0.0000 -89.0995 -25.1260 78.9266 43.0520 -49.7777 -20.7405 -0.0000 0.0000 -36.3563 28.7559 53.8413 23.8960 -7.1250 0.0000 -0.0000 -70.2580 82.7075 -63.1981 0.0000 -0.0000 0.0000 74.7330 44.0390 4.6610 -22.0784 33.0655 -6.6286 0.0000 -0.0000 -45.2386 -36.6091 -20.7002 14.7139 7.1250 -0.0000 -0.0000 -8.7471 -54.9749 2.1549
-1.9222 18.1365 6.0559 19.9211 -51.5252 7.0778 0.0000 0.0000 0.0000 -20.3709 -14.2394 -14.5505 2.6205 10.0538 29.1512 0.1337 4.6787 6.8159 0.2207 -3.0243 -8.3463 0.0000 0.0000 0.0000 9.5456 3.4490 -42.7550 -2.8555 -10.4574 30.4709 -0.5369 -0.6171 -14.0796 -1.2683 -7.1383 20.1258 2.2617 0.5411 14.9266 8.0305 0.9492 6.4377 7.1010 0.2814 -1.6280 -9.7492 -11.7067 -8.1967 10.0265 -17.9762 26.3500 2.8260 -8.0361 11.7934 -0.0000 0.0000 0.0000 -89.8054 -26.4460 79.6351 43.7584 -50.1455 -21.2812 -0.0000 0.0000 -35.9271 25.4081 53.5256 20.9051 -7.1250 0.0000 -0.0000 -66.6258 81.2576 -58.2812 -0.0000 0.0000 0.0000 73.2338 44.7309 2.1489 -21.9555 32.9267 -6.5617 0.0000 -0.0000 -44.4851 -36.1304 -20.4596 14.3151 7.1250 -0.0000 -0.0000 -8.2209 -54.5852 1.9458
-1.9169 18.1222 6.0595 19.8208 -51.8365 7.2686 0.0000 0.0000 0.0000 -20.5631 -13.9264 -14.5718 2.6240 10.0600 29.1712 0.0870 5.4002 6.0396 0.2330 -3.1067 -8.5760 0.0000 0.0000 0.0000 9.7720 3.3749 -43.0769 -2.8640 -10.4716 30.5177 -0.5148 -0.4019 -13.7065 -1.2386 -7.0572 19.8850 1.9467 0.3235 14.8704 7.9244 0.6146 6.4708 7.2220 0.1107 -1.5293 -9.6076 -11.4161 -8.5760 9.8358 -17.5444 26.6084 2.7850 -7.8352 11.8812 -0.0000 -0.0000 0.0000 -90.3890 -27.8251 79.8624 44.4281 -50.4852 -21.7967 -0.0000 0.0000 -35.2532 27.5958 52.3821 22.4908 -7.1250 0.0000 -0.0000 -59.0833 81.9432 -51.8754 -0.0000 -0.0000 0.0000 71.9150 45.6290 0.0697 -21.8298 32.7842 -6.4935 0.0000 -0.0000 -43.9774 -35.7180 -20.0332 13.8377 7.1250 -0.0000 -0.0000 -7.7872 -53.9970 1.7303
-1.9146 18.1135 6.0671 19.5484 -52.1964 7.5511 0.0000 0.0000 0.0000 -20.6505 -13.6641 -14.5315 2.6252 10.0621 29.1780 0.0353 6.2574 5.2698 0.2394 -3.1491 -8.6942 0.0000 0.0000 0.0000 10.0760 3.3833 -43.2935 -2.8715 -10.4841 30.5592 -0.4965 -0.1268 -13.3597 -1.2282 -7.0287 19.8006 1.7355 0.0972 14.8426 7.8769 0.2842 6.4933 7.3463 -0.0583 -1.4541 -9.6386 -11.1086 -8.8067 9.7540 -17.0868 26.7818 2.8232 -7.6375 11.9341 -0.0000 -0.0000 0.0000 -91.0386 -29.0589 80.2424 45.2921 -50.9108 -22.4652 -0.0000 0.0000 -35.7117 24.0852 52.2587 19.4679 -7.1250 0.0000 -0.0000 -58.9767 80.3836 -50.3007 -0.0000 -0.0000 0.0000 70.4650 46.3408 -1.6435 -21.8013 32.7518 -6.4780 0.0000 -0.0000 -43.6981 -35.7555 -19.9161 13.7813 7.1250 -0.0000 -0.0000 -7.8355 -53.8691 1.7166
-1.9118 18.1079 6.0751 19.2107 -52.5253 7.8828 0.0000 0.0000 0.0000 -20.6750 -13.4023 -14.5328 2.6228 10.0578 29.1642 -0.0142 7.0317 4.5816 0.2468 -3.1967 -8.8269 0.0000 0.0000 0.0000 10.4729 3.3145 -43.5166 -2.8756 -10.4908 30.5813 -0.4729 0.1255 -12.9499 -1.2113 -6.9817 19.6613 1.6964 -0.0628 14.8427 7.7778 0.0698 6.4698 7.2950 -0.1636 -1.4549 -9.6761 -10.8803 -8.9179 9.8330 -16.7966 26.9338 2.9003 -7.5022 11.9933 0.0000 0.0000 0.0000 -91.6453 -30.2328 81.0475 46.1549 -51.3219 -23.1369 -0.0000 0.0000 -36.3810 24.0560 51.4547 19.2460 -7.1250 0.0000 -0.0000 -54.5169 80.0824 -45.9650 0.0000 0.0000 0.0000 68.9604 46.8730 -3.5061 -21.7957 32.7453 -6.4750 0.0000 -0.0000 -43.5904 -36.2882 -19.4897 13.7650 7.1250 -0.0000 -0.0000 -8.4418 -53.4885 1.7721
-1.9087 18.1021 6.0834 18.9809 -52.8402 8.2076 0.0000 0.0000 0.0000 -20.7570 -13.1436 -14.6252 2.6169 10.0474 29.1303 -0.0575 7.6530 3.9915 0.2621 -3.2936 -9.0973 0.0000 0.0000 0.0000 10.7326 3.3315 -43.7610 -2.8727 -10.4861 30.5656 -0.4613 0.3623 -12.7105 -1.3105 -7.2515 20.4626 1.7100 -0.1857 14.7441 7.5729 -0.0918 6.4238 7.0856 -0.2380 -1.4348 -9.5175 -10.6918 -9.0013 9.8582 -16.5850 27.0771 2.9166 -7.3896 12.0276 0.0000 0.0000 0.0000 -92.1151 -31.4360 82.0094 46.8797 -51.6568 -23.7041 -0.0000 0.0000 -36.5352 23.9663 50.8384 19.0175 -7.1250 0.0000 -0.0000 -51.3596 79.7856 -42.8728 0.0000 0.0000 0.0000 67.6218 47.3718 -5.4593 -21.7974 32.7474 -6.4759 0.0000 -0.0000 -43.5074 -37.0471 -18.7889 13.6647 7.1250 -0.0000 -0.0000 -9.2899 -52.8294 1.8022
-1.9075 18.0970 6.0923 18.7440 -53.1583 8.4856 0.0000 0.0000 0.0000 -20.8535 -12.7877 -14.6739 2.6065 10.0291 29.0710 -0.0958 8.1722 3.4812 0.2560 -3.2553 -8.9902 0.0000 0.0000 0.0000 10.9856 3.3747 -43.9276 -2.8693 -10.4804 30.5469 -0.4519 0.5580 -12.5162 -1.3567 -7.3732 20.8257 1.6764 -0.3102 14.6675 7.4101 -0.2627 6.4000 6.9519 -0.3198 -1.4023 -9.3821 -10.4870 -9.1409 9.7467 -16.3152 27.3129 2.8929 -7.2635 12.0915 0.0000 -0.0000 0.0000 -92.5544 -32.5581 82.7329 47.6711 -52.0119 -24.3262 -0.0000 0.0000 -36.3907 24.2025 50.4672 19.1193 -7.1250 0.0000 -0.0000 -49.3330 79.7140 -41.0166 0.0000 -0.0000 0.0000 66.2783 47.8686 -7.3790 -21.7537 32.6976 -6.4523 0.0000 -0.0000 -43.0344 -38.1023 -18.3276 13.8517 7.1250 -0.0000 -0.0000 -10.4388 -52.5099 1.9466
-1.9081 18.0938 6.1023 18.5738 -53.4553 8.6314 0.0000 0.0000 0.0000 -20.9982 -12.4383 -14.6061 2.5885 9.9970 28.9671 -0.1435 8.7911 2.8582 0.1707 -2.6615 -7.3377 0.0000 0.0000 0.0000 11.2311 3.3093 -44.0414 -2.8673 -10.4771 30.5361 -0.4384 0.7928 -12.2559 -1.3496 -7.3545 20.7698 1.4500 -0.5121 14.6803 7.3978 -0.5557 6.3867 7.1172 -0.4696 -1.3888 -9.6414 -10.1947 -9.3097 9.6842 -15.8558 27.5588 2.9790 -7.0873 12.1861 -0.0000 0.0000 0.0000 -93.2931 -33.4239 82.7866 48.3194 -52.2948 -24.8382 -0.0000 0.0000 -35.4819 26.3755 50.0831 20.8229 -7.1250 0.0000 -0.0000 -45.7579 80.4692 -38.4987 -0.0000 0.0000 0.0000 64.7899 48.4360 -8.9853 -21.6337 32.5606 -6.3876 0.0000 -0.0000 -42.5281 -39.3203 -17.8728 14.1106 7.1250 -0.0000 -0.0000 -11.7522 -52.2293 2.1154
